<svg xmlns="http://www.w3.org/2000/svg" viewBox="0 0 340 80" fill="none">
  <defs>
    <linearGradient id="bg" x1="6" y1="6" x2="74" y2="74" gradientUnits="userSpaceOnUse">
      <stop stop-color="#FB6020"/>
      <stop offset="1" stop-color="#0EA5C6"/>
    </linearGradient>
    <linearGradient id="shine" x1="40" y1="10" x2="40" y2="58" gradientUnits="userSpaceOnUse">
      <stop stop-color="#FFFFFF" stop-opacity="0.16"/>
      <stop offset="1" stop-color="#FFFFFF" stop-opacity="0"/>
    </linearGradient>
  </defs>
  <rect x="4" y="4" width="72" height="72" rx="16" fill="url(#bg)"/>
  <rect x="4" y="4" width="72" height="72" rx="16" fill="url(#shine)"/>
  <g fill="#FFFFFF" transform="translate(40 40) scale(0.118) translate(-288 -271)">
    <path d="M108 138h92c58 0 94 32 94 82 0 36-20 62-54 74l66 90h-76l-58-82h-38v82h-92V138zm92 46v56h38c24 0 38-13 38-32s-14-32-38-32h-38z"/>
    <path d="M312 138h72l46 76 46-76h72l-70 116v130h-72V254l-70-116z"/>
  </g>
  <text
    x="90"
    y="51"
    font-family="Plus Jakarta Sans, system-ui, -apple-system, Segoe UI, sans-serif"
    font-size="33"
    font-weight="700"
    letter-spacing="-0.045em"
  >
    <tspan fill="#0F172A">Ride</tspan><tspan fill="#0EA5C6">Yo</tspan>
  </text>
</svg>
